<svg xmlns="http://www.w3.org/2000/svg" width="28" height="25.187" viewBox="0 0 28 25.187">
  <path id="Icon_metro-magic-wand" data-name="Icon metro-magic-wand" d="M9.571,6.651,6.071,3.5H4.321V5.076l3.5,3.148Zm1.75-4.723h1.75V5.076h-1.75Zm7,7.871h3.5v1.574h-3.5Zm1.75-4.723V3.5h-1.75l-3.5,3.148,1.75,1.574ZM2.571,9.8h3.5v1.574h-3.5Zm8.75,6.3h1.75v3.148h-1.75Zm-7,0V17.67h1.75l3.5-3.148-1.75-1.574Zm25.867,7.526L12.794,7.976a1.423,1.423,0,0,0-1.856,0L9.294,9.455a1.1,1.1,0,0,0,0,1.67L26.688,26.77a1.423,1.423,0,0,0,1.856,0l1.644-1.479A1.1,1.1,0,0,0,30.188,23.622ZM15.7,15.308l-5.25-4.723L12.2,9.012l5.25,4.723Z" transform="translate(-2.571 -1.928)" fill="#ececec"/>
</svg>
