<svg xmlns="http://www.w3.org/2000/svg" xmlns:xlink="http://www.w3.org/1999/xlink" width="142" height="119.963" viewBox="0 0 142 119.963">
  <defs>
    <clipPath id="clip-path">
      <rect id="Rectangle_33" data-name="Rectangle 33" width="108.58" height="90.425" fill="#fff"/>
    </clipPath>
  </defs>
  <g id="Group_211" data-name="Group 211" transform="translate(-128 -29.037)">
    <g id="Group_199" data-name="Group 199" transform="translate(145 29.037)">
      <g id="Group_17" data-name="Group 17" clip-path="url(#clip-path)">
        <path id="Path_48" data-name="Path 48" d="M15.8,32.779c.688,1,1.533,1,2.8.635,2.908-.794,8.564-2.168,11.366-2.116,1.11,0,1.268-.423,1-1.162-.635-1.745-2.115-2.591-4.969-2.485a45.894,45.894,0,0,0-7.19,1.269c1.058-2.379,2.167-4.546,3.648-7.349A41.22,41.22,0,0,1,31.606,20.2c1.215,0,1.321-.529,1.057-1.217-.582-1.691-1.956-2.643-4.863-2.537-.74.054-1.639.105-2.75.265,2.485-4.495,4.917-8.882,6.662-11.525.792-.106,1.321-.212,2.114-.37a43.866,43.866,0,0,1,7.983-1.006c1,0,1.374-.475,1.163-1.056C42.284.9,40.962-.05,38.531,0a33.823,33.823,0,0,0-4.652.529,50.314,50.314,0,0,1-8.247.74c-.792,0-1.374.318-1.215,1.059a4.489,4.489,0,0,0,2.115,2.643A143.933,143.933,0,0,0,14.69,27.6c-.529,1.481-.635,2.168-.211,2.856.581.95.951,1.8,1.321,2.325" transform="translate(-7.341 0)" fill="#fff"/>
        <path id="Path_49" data-name="Path 49" d="M57.648,25.8a2.732,2.732,0,0,0,1,1.956,72.983,72.983,0,0,0-6.5,9.621,8.122,8.122,0,0,0-1.11,3.806,4.2,4.2,0,0,0,1.321,3.12c.951,1,1.639.529,1.85-.423.74-3.647,3.753-8.511,7.717-15.383a11.064,11.064,0,0,0,3.86-.846c-2.644,3.225-5.445,7.295-5.445,10.678,0,2.855,1.745,5.128,4.969,5.128a8.6,8.6,0,0,0,7.4-5.285,4.365,4.365,0,0,0,.159-3.437c-.476-.95-1.215-.9-1.639.054-1.639,3.647-3.754,6.607-5.551,6.607-.74,0-1.163-.844-1.163-2.219,0-3.12,3.013-7.3,5.867-10.573a3.267,3.267,0,0,0,.846-2.062A5.319,5.319,0,0,0,69.7,23.157c-.687-.687-1.216-.581-2.115.054A12.816,12.816,0,0,1,63.3,25.431a14.824,14.824,0,0,0,.952-4.23c0-1.215-.476-1.85-1.586-1.85-1.639,0-5.022,3.754-5.022,6.449" transform="translate(-26.354 -9.992)" fill="#fff"/>
        <path id="Path_50" data-name="Path 50" d="M10.013,100.589c2.453,0,4.734-1.539,6.331-3.251a4.235,4.235,0,0,0,4.106,3.535c3.993.115,8.1-4.277,11.976-10.72,3.594-6.045,4.563-8.555,4.9-10.665.228-1.369-.171-2.337-1.2-2.337s-5.7,2.565-6.787,12.717c-2.965,5.075-6.045,8.612-7.7,8.612-.513,0-.741-.457-.741-1.256a8.324,8.324,0,0,1,1.027-3.364c2.052-4.392,4.5-7.814,5.417-9.7,1.368-2.8,1.368-5.075-.171-6.729-.627-.627-1.426-.571-2.168.4a35.032,35.032,0,0,0-3.078,5.019c-1.084,1.938-2.225,4.162-4.791,8.383-2.452,4.049-4.335,7.072-5.817,7.072-.456,0-.513-.4-.513-1.084a9.209,9.209,0,0,1,.684-3.136A65.014,65.014,0,0,1,16,85.705c1.312-2.111,2-3.821,2-5.191a6.007,6.007,0,0,0-1.14-2.908c-.57-.8-1.483-.685-2.167.228A77.71,77.71,0,0,0,6.876,92.148a10.648,10.648,0,0,0-.741,3.993c0,2.51,1.2,4.448,3.878,4.448" transform="translate(-3.168 -39.771)" fill="#fff"/>
        <path id="Path_51" data-name="Path 51" d="M66.167,84.51a15.4,15.4,0,0,0-3.08,8.5c0,3.365,1.825,5.817,5.191,5.817,2.28,0,4.848-1.768,6.5-3.365.456,2.111,2.11,3.593,4.961,3.593,2.611,0,5.319-1.7,7.134-3.879,1.987,3.049,5.174,3.872,8.377,3.764a12.2,12.2,0,0,0,10.436-6.33,4.6,4.6,0,0,0,.57-3.935c-.4-.913-1.255-1.313-1.768,0a12.364,12.364,0,0,1-4.962,6.273,10.911,10.911,0,0,0,.97-4.277c.114-3.079-.628-6.787-.628-10.836,0-.74.058-1.71.115-2.4,1.768-2.908,1.426-4.162-.115-4.162a4.431,4.431,0,0,0-2.794,1.2,6.122,6.122,0,0,0-2.224,4.449c-1.483,2.452-3.479,5.416-5.361,8.1-.172-1.369-1.027-1.654-2.167-.685A5.77,5.77,0,0,0,85.5,90.783c0,.251.024.5.048.757-1.743,2.829-3.85,5.232-5.466,5.232-.571,0-.8-.514-.8-1.369,0-3.821,4.791-10.036,6.273-13.174,1.483-2.966.97-5.475,0-6.616-.685-.8-1.654-.74-2.338.4l-1.083,1.768a3.717,3.717,0,0,0-3.821-2.509c-2.909,0-7.585,2.68-12.147,9.238m28.685,0c.114,1.54.171,3.365.171,5.19,0,3.706-.513,6.558-1.711,6.558-1.255,0-2.452-2-3.136-4.676,1.711-2.452,3.307-4.9,4.676-7.072M79.569,79.892c0,1.482-1.026,4.277-3.251,8.155-2.795,4.79-5.417,8.27-7.3,8.27-.571,0-.8-.685-.8-1.712A16.05,16.05,0,0,1,70.9,87.077c2.908-4.676,6.843-8.27,7.984-8.27.57,0,.684.4.684,1.084" transform="translate(-32.575 -37.836)" fill="#fff"/>
        <path id="Path_52" data-name="Path 52" d="M103,142.086a1.894,1.894,0,0,0-1.372.718,3.43,3.43,0,0,1-2.809,1.176c-1.96,0-3.92-1.7-7.448-1.7a7.343,7.343,0,0,0-5.925,3.092,5.752,5.752,0,0,0-.348.658c-.013-.015-.03-.027-.043-.043-2.884,4.266-4.617,5.252-5.187,5.474-.1.074-.2.151-.308.224a12.141,12.141,0,0,0,1.079-4.763c.128-3.428-.7-7.556-.7-12.064,0-.827.063-1.906.127-2.668,1.968-3.239,1.587-4.635-.127-4.635a4.931,4.931,0,0,0-3.112,1.333,6.817,6.817,0,0,0-2.476,4.954c-1.651,2.731-3.874,6.032-5.969,9.016-.191-1.524-1.143-1.841-2.413-.761a6.426,6.426,0,0,0-2.032,4.954c0,.193.024.386.037.58-2.1,3.272-4.581,5.96-6.323,5.96-.825,0-1.27-.826-1.27-2.159,0-2.35,2.159-6.541,4.19-9.779,2.032-3.557,3.175-5.59,3.175-6.985,0-2.413-1.715-4.636-3.556-4.636-2.286,0-5.334,2.1-8.065,4.636A8.116,8.116,0,0,0,52.2,133.4a5.734,5.734,0,0,0-.825-2.984c-.635-1.142-1.587-1.207-2.413,0a132.994,132.994,0,0,0-9.221,16.348c-2.613,3.436-6.3,6.83-10.4,6.83-1.9,0-3.048-1.968-3.048-4.763a13.462,13.462,0,0,1,.572-3.747,8.156,8.156,0,0,0,4.509,1.4c5.588,0,9.843-6.668,9.843-10.477a4.616,4.616,0,0,0-.636-2.349,11.553,11.553,0,0,0-3.937-3.3,4.11,4.11,0,0,0-2.222-.508c-3.683,0-8.826,3.366-12.129,10.1a16.966,16.966,0,0,0-1.8,5.336c-2.619,3.868-6.77,8.316-11.466,8.316-1.9,0-3.048-1.968-3.048-4.763a13.428,13.428,0,0,1,.572-3.747,8.151,8.151,0,0,0,4.508,1.4c5.588,0,9.843-6.668,9.843-10.477a4.621,4.621,0,0,0-.635-2.349,11.569,11.569,0,0,0-3.937-3.3,4.11,4.11,0,0,0-2.222-.508c-3.683,0-8.827,3.366-12.128,10.1A15.775,15.775,0,0,0,0,147.242c0,5.08,3.238,8.955,9.144,8.891A16.536,16.536,0,0,0,20.829,150.5c1.119,3.383,4.08,5.682,8.635,5.633a15.993,15.993,0,0,0,8.968-3.167,4.51,4.51,0,0,0,1.318,2.6c1.016,1.016,1.842.636,2.286-.38,2.6-5.716,5.461-11.939,8.953-15.622,3.493-3.937,6.6-5.714,7.176-5.714.444,0-.572,1.651-1.906,3.747-2.476,3.935-5.4,9.779-5.4,13.208,0,3.3,1.841,5.459,6.1,5.459,2.885,0,6.239-1.933,8.472-4.386,2.208,3.45,5.781,4.379,9.371,4.26a13.591,13.591,0,0,0,11.621-7.048c.075-.13.115-.252.179-.381a3.868,3.868,0,0,0,.4-.347,3.841,3.841,0,0,1,2.875-1.176c2.09,0,4.377,1.764,7.9,1.764a6.088,6.088,0,0,0,6.207-5.357c.065-.98-.327-1.5-.98-1.5m-66.555-8.623c.7.571-.635,3.556-2.477,6.032-1.269,1.715-3.3,3.62-4.825,3.62a2.569,2.569,0,0,1-1.4-.444c3.048-6.1,7.747-9.971,8.7-9.208m-20.319,0c.7.571-.635,3.556-2.476,6.032-1.271,1.715-3.3,3.62-4.827,3.62a2.569,2.569,0,0,1-1.4-.444c3.048-6.1,7.748-9.971,8.7-9.208m56.514,19.686c-1.4,0-2.731-2.223-3.492-5.208,1.9-2.731,3.683-5.46,5.207-7.873.127,1.715.19,3.747.19,5.779,0,4.127-.571,7.3-1.9,7.3" transform="translate(0 -65.864)" fill="#fff"/>
        <path id="Path_53" data-name="Path 53" d="M182.448,176.305c.732-1.8,2.422-2.759,3.886-2.14,1.351.506,1.746,2.14,1.183,3.717-.732,1.577-2.591,2.815-3.886,2.2-1.408-.563-1.859-2.2-1.183-3.773m7.322.056a3.324,3.324,0,0,1,4-2.2c1.352.45,1.746,2.084,1.126,3.773-.675,1.577-2.59,2.7-3.942,2.2-1.408-.506-1.859-2.2-1.183-3.773m7.659,0a3.114,3.114,0,0,1,3.717-2.14c1.351.394,1.858,2.027,1.183,3.661a3.3,3.3,0,0,1-3.773,2.2c-1.352-.45-1.746-2.253-1.126-3.717" transform="translate(-94.047 -89.832)" fill="#fff"/>
      </g>
    </g>
    <text id="_Het_sprookjesportaal" data-name=" Het sprookjesportaal" transform="translate(128 145)" fill="#fff" font-size="15" font-family="Helvetica"><tspan x="0" y="0" xml:space="preserve"> Het sprookjesportaal</tspan></text>
  </g>
</svg>
