<svg id="Group_22" data-name="Group 22" xmlns="http://www.w3.org/2000/svg" xmlns:xlink="http://www.w3.org/1999/xlink" width="241.16" height="200.838" viewBox="0 0 241.16 200.838">
  <defs>
    <clipPath id="clip-path">
      <rect id="Rectangle_33" data-name="Rectangle 33" width="241.16" height="200.838" fill="#fff" stroke="#000" stroke-width="1"/>
    </clipPath>
  </defs>
  <g id="Group_17" data-name="Group 17" clip-path="url(#clip-path)">
    <path id="Path_48" data-name="Path 48" d="M17.732,72.8c1.528,2.23,3.405,2.23,6.222,1.409,6.459-1.764,19.021-4.815,25.245-4.7,2.464,0,2.817-.939,2.23-2.58-1.409-3.875-4.7-5.755-11.036-5.519a101.932,101.932,0,0,0-15.968,2.819c2.349-5.284,4.814-10.1,8.1-16.322,6.339-1.645,14.558-3.051,20.312-3.051,2.7,0,2.935-1.175,2.347-2.7-1.292-3.755-4.344-5.869-10.8-5.634-1.645.119-3.639.234-6.107.589,5.519-9.983,10.922-19.727,14.8-25.6,1.76-.235,2.935-.471,4.694-.821C63.287,9.633,69.627,8.459,75.5,8.459c2.23,0,3.052-1.056,2.582-2.346C76.554,2,73.619-.113,68.219.005A75.122,75.122,0,0,0,57.886,1.179,111.75,111.75,0,0,1,39.569,2.822c-1.76,0-3.052.706-2.7,2.351.588,2.23,1.995,4.11,4.7,5.869-9.746,15.147-21.017,36.4-26.3,50.251-1.174,3.289-1.409,4.815-.469,6.343,1.29,2.111,2.113,3.991,2.935,5.165" transform="translate(1.055 0)" fill="#fff" stroke="#000" stroke-width="1"/>
    <path id="Path_49" data-name="Path 49" d="M65.716,33.675a6.069,6.069,0,0,0,2.23,4.344A162.1,162.1,0,0,0,53.505,59.387a18.04,18.04,0,0,0-2.465,8.454,9.324,9.324,0,0,0,2.935,6.929c2.113,2.23,3.639,1.174,4.11-.94,1.642-8.1,8.336-18.9,17.14-34.166A24.573,24.573,0,0,0,83.8,37.784C77.926,44.947,71.7,53.987,71.7,61.5c0,6.34,3.875,11.389,11.036,11.389,6.691,0,13.62-5.049,16.438-11.739,1.292-3.17,1.174-5.989.352-7.633-1.057-2.111-2.7-1.995-3.639.119-3.639,8.1-8.337,14.674-12.329,14.674-1.645,0-2.582-1.876-2.582-4.93,0-6.929,6.692-16.2,13.031-23.482a7.255,7.255,0,0,0,1.88-4.579,11.814,11.814,0,0,0-3.405-7.514c-1.526-1.525-2.7-1.291-4.7.119a28.465,28.465,0,0,1-9.511,4.93,32.925,32.925,0,0,0,2.114-9.394c0-2.7-1.057-4.109-3.522-4.109-3.639,0-11.154,8.338-11.154,14.324" transform="translate(3.788 1.436)" fill="#fff" stroke="#000" stroke-width="1"/>
    <path id="Path_50" data-name="Path 50" d="M14.748,129.363c5.448,0,10.513-3.418,14.06-7.22.887,4.179,4.055,7.726,9.119,7.851,8.868.256,17.987-9.5,26.6-23.81,7.981-13.427,10.135-19,10.894-23.687.507-3.041-.38-5.192-2.659-5.192S60.1,83,57.688,105.55c-6.586,11.273-13.427,19.127-17.1,19.127-1.14,0-1.647-1.015-1.647-2.789a18.487,18.487,0,0,1,2.282-7.471c4.558-9.755,10-17.355,12.032-21.534,3.039-6.208,3.039-11.273-.38-14.946-1.393-1.393-3.167-1.268-4.815.886a77.807,77.807,0,0,0-6.837,11.147c-2.408,4.305-4.941,9.245-10.641,18.619-5.446,8.993-9.627,15.706-12.921,15.706-1.012,0-1.14-.886-1.14-2.408a20.453,20.453,0,0,1,1.52-6.965A144.4,144.4,0,0,1,28.048,96.305c2.914-4.689,4.433-8.487,4.433-11.528,0-2.154-1.519-5.065-2.533-6.458-1.266-1.774-3.294-1.522-4.812.506-7.22,10.006-14.186,23.939-17.354,31.791a23.649,23.649,0,0,0-1.647,8.868c0,5.575,2.661,9.88,8.613,9.88" transform="translate(0.455 5.716)" fill="#fff" stroke="#000" stroke-width="1"/>
    <path id="Path_51" data-name="Path 51" d="M69.929,98.228c-4.56,6.332-6.842,13.427-6.842,18.873,0,7.474,4.054,12.921,11.528,12.921,5.065,0,10.767-3.927,14.44-7.474,1.012,4.689,4.687,7.98,11.019,7.98,5.8,0,11.813-3.783,15.845-8.615,4.413,6.773,11.492,8.6,18.606,8.361A27.1,27.1,0,0,0,157.7,116.214c2.281-3.925,1.9-7.472,1.266-8.739-.887-2.028-2.786-2.915-3.926,0a27.461,27.461,0,0,1-11.02,13.933,24.234,24.234,0,0,0,2.155-9.5c.252-6.84-1.4-15.074-1.4-24.068,0-1.645.128-3.8.255-5.321,3.926-6.459,3.167-9.245-.255-9.245a9.84,9.84,0,0,0-6.206,2.66c-2.913,2.406-4.433,5.321-4.939,9.881-3.295,5.446-7.727,12.03-11.907,17.987-.381-3.041-2.281-3.673-4.814-1.522a12.815,12.815,0,0,0-4.053,9.88c0,.558.053,1.12.107,1.681-3.87,6.284-8.552,11.621-12.14,11.621-1.268,0-1.774-1.142-1.774-3.041,0-8.487,10.641-22.291,13.934-29.259,3.294-6.588,2.154-12.16,0-14.694-1.521-1.77-3.673-1.645-5.194.886l-2.406,3.927c-1.141-3.291-3.926-5.572-8.486-5.572-6.46,0-16.846,5.953-26.979,20.519m63.71,0c.252,3.421.38,7.474.38,11.527,0,8.232-1.14,14.565-3.8,14.565-2.788,0-5.446-4.433-6.966-10.387,3.8-5.446,7.345-10.893,10.387-15.706M99.694,87.97c0,3.292-2.279,9.5-7.22,18.112-6.207,10.638-12.032,18.367-16.213,18.367-1.268,0-1.774-1.522-1.774-3.8,0-4.053,2.154-10.767,5.954-16.719,6.458-10.387,15.2-18.367,17.732-18.367,1.266,0,1.52.886,1.52,2.408" transform="translate(4.682 5.438)" fill="#fff" stroke="#000" stroke-width="1"/>
    <path id="Path_52" data-name="Path 52" d="M228.773,159.825a4.207,4.207,0,0,0-3.048,1.6c-2.466,2.321-3.918,2.612-6.239,2.612-4.354,0-8.706-3.773-16.542-3.773a16.309,16.309,0,0,0-13.159,6.867,12.773,12.773,0,0,0-.772,1.462c-.029-.033-.067-.059-.095-.095-6.4,9.475-10.256,11.664-11.52,12.158-.232.164-.447.335-.684.5a26.964,26.964,0,0,0,2.4-10.578c.284-7.614-1.55-16.782-1.55-26.794,0-1.837.141-4.232.281-5.926,4.372-7.193,3.526-10.294-.281-10.294a10.951,10.951,0,0,0-6.911,2.962c-3.243,2.68-4.937,5.923-5.5,11-3.667,6.065-8.6,13.4-13.258,20.024-.423-3.385-2.538-4.09-5.36-1.691-3.1,2.68-4.513,6.77-4.513,11,0,.428.053.858.083,1.288-4.656,7.268-10.175,13.238-14.043,13.238-1.833,0-2.82-1.834-2.82-4.794,0-5.219,4.794-14.529,9.307-21.72,4.513-7.9,7.052-12.415,7.052-15.515,0-5.36-3.808-10.3-7.9-10.3-5.077,0-11.847,4.656-17.912,10.3a18.026,18.026,0,0,0,.141-2.822A12.735,12.735,0,0,0,114.1,133.9c-1.409-2.537-3.526-2.68-5.36,0-7.4,11.1-16.288,26.909-20.481,36.309-5.8,7.631-13.987,15.169-23.1,15.169-4.23,0-6.77-4.371-6.77-10.578a29.9,29.9,0,0,1,1.27-8.322,18.116,18.116,0,0,0,10.014,3.1c12.411,0,21.861-14.81,21.861-23.271A10.253,10.253,0,0,0,90.12,141.1c-1.973-2.823-4.794-5.079-8.744-7.336a9.129,9.129,0,0,0-4.936-1.129c-8.179,0-19.6,7.475-26.939,22.427a37.682,37.682,0,0,0-4.007,11.851c-5.817,8.59-15.036,18.471-25.467,18.471-4.23,0-6.77-4.371-6.77-10.578a29.823,29.823,0,0,1,1.271-8.322,18.1,18.1,0,0,0,10.012,3.1c12.411,0,21.861-14.81,21.861-23.271a10.263,10.263,0,0,0-1.409-5.217c-1.975-2.823-4.8-5.079-8.745-7.336a9.129,9.129,0,0,0-4.936-1.129c-8.18,0-19.605,7.475-26.937,22.427A35.037,35.037,0,0,0,0,171.277c0,11.282,7.192,19.889,20.309,19.747,9.741-.127,19.685-5.345,25.953-12.51,2.486,7.514,9.061,12.62,19.178,12.51a35.522,35.522,0,0,0,19.918-7.035,10.017,10.017,0,0,0,2.927,5.764c2.257,2.257,4.092,1.413,5.077-.844,5.785-12.7,12.13-26.516,19.886-34.7,7.758-8.744,14.668-12.692,15.939-12.692.986,0-1.271,3.666-4.232,8.322-5.5,8.741-11.987,21.718-11.987,29.336,0,7.331,4.09,12.126,13.539,12.126,6.409,0,13.857-4.293,18.816-9.742,4.9,7.663,12.839,9.726,20.813,9.462,10.579-.424,20.452-5.785,25.81-15.655.168-.289.256-.561.4-.845a8.6,8.6,0,0,0,.878-.77,8.531,8.531,0,0,1,6.386-2.612c4.643,0,9.721,3.919,17.556,3.919a13.521,13.521,0,0,0,13.785-11.9c.145-2.177-.726-3.338-2.176-3.338M80.953,140.674c1.552,1.268-1.409,7.9-5.5,13.4-2.819,3.808-7.331,8.04-10.716,8.04a5.706,5.706,0,0,1-3.1-.986c6.77-13.539,17.206-22.146,19.322-20.452m-45.13,0c1.552,1.268-1.409,7.9-5.5,13.4-2.823,3.808-7.336,8.04-10.721,8.04a5.705,5.705,0,0,1-3.1-.986c6.77-13.539,17.208-22.146,19.322-20.452M161.341,184.4c-3.1,0-6.065-4.937-7.757-11.567,4.23-6.065,8.18-12.127,11.565-17.487.281,3.808.422,8.322.422,12.835,0,9.165-1.269,16.22-4.23,16.22" transform="translate(0 9.466)" fill="#fff" stroke="#000" stroke-width="1"/>
    <path id="Path_53" data-name="Path 53" d="M182.825,179.148c1.626-4,5.38-6.128,8.631-4.753,3,1.125,3.878,4.753,2.626,8.256-1.626,3.5-5.755,6.253-8.631,4.878-3.127-1.251-4.128-4.878-2.626-8.381m16.263.125c1.75-4.128,5.628-6,8.879-4.878,3,1,3.879,4.628,2.5,8.381-1.5,3.5-5.753,6-8.755,4.878-3.128-1.125-4.128-4.878-2.626-8.381m17.011,0c1.251-3.753,5.128-5.755,8.256-4.753,3,.875,4.126,4.5,2.626,8.132-1.376,3.627-5.255,5.878-8.381,4.878-3-1-3.877-5-2.5-8.256" transform="translate(13.517 12.911)" fill="#fff" stroke="#000" stroke-width="1"/>
  </g>
</svg>
